<svg width="16" height="16" viewBox="0 0 16 16" fill="none" xmlns="http://www.w3.org/2000/svg">
<path fill-rule="evenodd" clip-rule="evenodd" d="M8.00004 13.3333C10.9456 13.3333 13.3334 10.9454 13.3334 7.99992C13.3334 5.0544 10.9456 2.66659 8.00004 2.66659C5.05452 2.66659 2.66671 5.0544 2.66671 7.99992C2.66671 10.9454 5.05452 13.3333 8.00004 13.3333ZM8.00004 14.6666C11.6819 14.6666 14.6667 11.6818 14.6667 7.99992C14.6667 4.31802 11.6819 1.33325 8.00004 1.33325C4.31814 1.33325 1.33337 4.31802 1.33337 7.99992C1.33337 11.6818 4.31814 14.6666 8.00004 14.6666Z" fill="#A7B1BC"/>
<path fill-rule="evenodd" clip-rule="evenodd" d="M8.00004 4C8.36823 4 8.66671 4.29848 8.66671 4.66667V7.72386L10.1381 9.19526C10.3985 9.45561 10.3985 9.87772 10.1381 10.1381C9.87776 10.3984 9.45565 10.3984 9.1953 10.1381L7.52864 8.4714C7.40361 8.34638 7.33337 8.17681 7.33337 8V4.66667C7.33337 4.29848 7.63185 4 8.00004 4Z" fill="#A7B1BC"/>
</svg>
